<svg xmlns="http://www.w3.org/2000/svg" viewBox="0 0 96 96">
  <defs id="defs3051">
    <style type="text/css" id="current-color-scheme">
      .ColorScheme-Text {
        color:#333337;
      }
      .ColorScheme-Accent {
        color:#ff7800;
      }
      </style>
  </defs>
 <!-- Folder body (accent fill) -->
 <path
     style="fill:currentColor"
     d="M20.623 12C7.36 12 6 12.75 6 25.986v43.418C6 82.641 7.358 84 20.621 84h54.756C88.64 84 90 82.641 90 69.404V33.346C90 20.109 88.64 18 75.377 18H43l-6-6z"
     class="ColorScheme-Accent"
     />
 <!-- Tab shadow overlay (color-burn to visually separate tab from body) -->
 <path
     style="mix-blend-mode:color-burn;fill-opacity:0.4"
     d="M20.623 12C7.36 12 6 12.75 6 25.986v18.61C6 31.359 7.36 30 20.623 30H39l6-6h30.377C88.64 24 90 25.359 90 38.596v-5.25C90 20.109 88.64 18 75.377 18H43l-6-6z"
     class="ColorScheme-Text"
     />
 <!-- Top edge highlight (white border tracing folder body and tab edges) -->
 <path
     style="fill:#ffffff;fill-opacity:0.2"
     d="M20.623 12C7.36 12 6 12.75 6 25.986v1C6 13.75 7.36 13 20.623 13H37l6 6h32.377C88.64 19 90 21.11 90 34.346v-1C90 20.109 88.64 18 75.377 18H43l-6-6ZM45 24l-6 6H20.623C7.36 30 6 31.36 6 44.596v1C6 32.359 7.36 31 20.623 31H39l6-6h30.377C88.64 25 90 26.359 90 39.596v-1C90 25.359 88.64 24 75.377 24Z"
     />
 <!-- Bottom-right corner fold sheen -->
 <path
     style="fill:#ffffff;fill-opacity:0.1"
     d="M90 60 67 83h8.93C88.693 83 90 81.692 90 68.956Z"
     />
 <!-- Bottom edge shadow -->
 <path
     style="fill-opacity:0.2;fill-rule:evenodd"
     d="M6 68.404v1C6 82.641 7.36 84 20.623 84h54.754C88.64 84 90 82.641 90 69.404v-1C90 81.641 88.64 83 75.377 83H20.623C7.36 83 6 81.641 6 68.404Z"
     class="ColorScheme-Text"
     />
<!-- Pictogram -->
 <path
     style="fill:#ffffff;fill-opacity:0.4"
     d="M45 37v12h-5.45S44.012 59.774 49 66.6c4.988-6.826 9.45-17.6 9.45-17.6H53V37Zm2 2h4v12h4.484C54.356 53.394 52.36 58.144 49 63.2c-3.36-5.056-5.356-9.806-6.484-12.2H47Zm-8 32v2h20v-2z"
     />
</svg>

